<svg width="222" height="111" viewBox="0 0 222 111" fill="none" xmlns="http://www.w3.org/2000/svg">
<path d="M110.531 99.4781C147.158 99.4781 176.85 79.6835 176.85 55.2656C176.85 30.8477 147.158 11.0531 110.531 11.0531C73.9044 11.0531 44.2125 30.8477 44.2125 55.2656C44.2125 79.6835 73.9044 99.4781 110.531 99.4781Z" fill="url(#paint0_radial_1_79)"/>
<path opacity="0.9" d="M110.531 30.9487L130.427 46.4231L110.531 57.4762L90.6356 46.4231L110.531 30.9487Z" fill="url(#paint1_linear_1_79)"/>
<path opacity="0.7" d="M110.531 57.4762L130.427 46.4231L110.531 79.5825V57.4762Z" fill="#155DFC"/>
<path opacity="0.8" d="M110.531 57.4762L90.6356 46.4231L110.531 79.5825V57.4762Z" fill="#0D3B9E"/>
<path opacity="0.4" d="M110.531 30.9487V57.4762" stroke="white" stroke-width="1.10531"/>
<path opacity="0.3" d="M110.531 30.9487L130.427 46.4231" stroke="white" stroke-width="0.88425"/>
<path opacity="0.5" d="M110.531 30.9487L90.6356 46.4231" stroke="#4A90FF" stroke-width="0.88425"/>
<path opacity="0.6" d="M110.531 49.7391C112.363 49.7391 113.847 48.2545 113.847 46.4231C113.847 44.5918 112.363 43.1072 110.531 43.1072C108.7 43.1072 107.215 44.5918 107.215 46.4231C107.215 48.2545 108.7 49.7391 110.531 49.7391Z" fill="white"/>
<path d="M110.531 48.0811C111.447 48.0811 112.189 47.3388 112.189 46.4231C112.189 45.5074 111.447 44.7651 110.531 44.7651C109.616 44.7651 108.873 45.5074 108.873 46.4231C108.873 47.3388 109.616 48.0811 110.531 48.0811Z" fill="#4A90FF"/>
<path opacity="0.4" d="M99.4781 46.4231H121.584" stroke="#4A90FF" stroke-width="1.65797"/>
<path opacity="0.3" d="M103.899 55.2656H117.163" stroke="#155DFC" stroke-width="1.32638"/>
<g opacity="0.5">
<path d="M110.531 93.9516C134.949 93.9516 154.744 76.6313 154.744 55.2656C154.744 33.9 134.949 16.5797 110.531 16.5797C86.1134 16.5797 66.3188 33.9 66.3188 55.2656C66.3188 76.6313 86.1134 93.9516 110.531 93.9516Z" stroke="#155DFC" stroke-width="1.65797" stroke-dasharray="3.32 4.42"/>
<path opacity="0.6" d="M110.531 101.689C139.833 101.689 163.586 80.9044 163.586 55.2657C163.586 29.6269 139.833 8.84253 110.531 8.84253C81.2298 8.84253 57.4763 29.6269 57.4763 55.2657C57.4763 80.9044 81.2298 101.689 110.531 101.689Z" stroke="#155DFC" stroke-width="1.10531" stroke-dasharray="2.21 6.63"/>
</g>
<path opacity="0.8" d="M110.531 12.1584C112.363 12.1584 113.847 10.6738 113.847 8.84249C113.847 7.01115 112.363 5.52655 110.531 5.52655C108.7 5.52655 107.215 7.01115 107.215 8.84249C107.215 10.6738 108.7 12.1584 110.531 12.1584Z" fill="#155DFC"/>
<path d="M110.531 10.5004C111.447 10.5004 112.189 9.75815 112.189 8.84248C112.189 7.92681 111.447 7.18451 110.531 7.18451C109.616 7.18451 108.873 7.92681 108.873 8.84248C108.873 9.75815 109.616 10.5004 110.531 10.5004Z" fill="#4A90FF"/>
<path opacity="0.8" d="M110.531 105.005C112.363 105.005 113.847 103.52 113.847 101.689C113.847 99.8574 112.363 98.3728 110.531 98.3728C108.7 98.3728 107.215 99.8574 107.215 101.689C107.215 103.52 108.7 105.005 110.531 105.005Z" fill="#155DFC"/>
<path d="M110.531 103.347C111.447 103.347 112.189 102.604 112.189 101.689C112.189 100.773 111.447 100.031 110.531 100.031C109.616 100.031 108.873 100.773 108.873 101.689C108.873 102.604 109.616 103.347 110.531 103.347Z" fill="#4A90FF"/>
<path opacity="0.7" d="M57.4762 58.0289C59.0024 58.0289 60.2395 56.7917 60.2395 55.2656C60.2395 53.7395 59.0024 52.5023 57.4762 52.5023C55.9501 52.5023 54.713 53.7395 54.713 55.2656C54.713 56.7917 55.9501 58.0289 57.4762 58.0289Z" fill="#155DFC"/>
<path d="M57.4762 56.592C58.2088 56.592 58.8026 55.9981 58.8026 55.2656C58.8026 54.533 58.2088 53.9392 57.4762 53.9392C56.7437 53.9392 56.1499 54.533 56.1499 55.2656C56.1499 55.9981 56.7437 56.592 57.4762 56.592Z" fill="#4A90FF"/>
<path opacity="0.7" d="M163.586 58.0289C165.112 58.0289 166.35 56.7917 166.35 55.2656C166.35 53.7395 165.112 52.5023 163.586 52.5023C162.06 52.5023 160.823 53.7395 160.823 55.2656C160.823 56.7917 162.06 58.0289 163.586 58.0289Z" fill="#155DFC"/>
<path d="M163.586 56.592C164.319 56.592 164.913 55.9981 164.913 55.2656C164.913 54.533 164.319 53.9392 163.586 53.9392C162.854 53.9392 162.26 54.533 162.26 55.2656C162.26 55.9981 162.854 56.592 163.586 56.592Z" fill="#4A90FF"/>
<path opacity="0.6" d="M77.3719 24.3169C78.5928 24.3169 79.5825 23.3271 79.5825 22.1063C79.5825 20.8854 78.5928 19.8956 77.3719 19.8956C76.151 19.8956 75.1613 20.8854 75.1613 22.1063C75.1613 23.3271 76.151 24.3169 77.3719 24.3169Z" fill="#155DFC"/>
<path opacity="0.6" d="M143.691 90.6356C144.912 90.6356 145.901 89.6459 145.901 88.425C145.901 87.2041 144.912 86.2144 143.691 86.2144C142.47 86.2144 141.48 87.2041 141.48 88.425C141.48 89.6459 142.47 90.6356 143.691 90.6356Z" fill="#155DFC"/>
<path opacity="0.6" d="M77.3719 90.6356C78.5928 90.6356 79.5825 89.6459 79.5825 88.425C79.5825 87.2041 78.5928 86.2144 77.3719 86.2144C76.151 86.2144 75.1613 87.2041 75.1613 88.425C75.1613 89.6459 76.151 90.6356 77.3719 90.6356Z" fill="#4A90FF"/>
<path opacity="0.6" d="M143.691 24.3169C144.912 24.3169 145.901 23.3271 145.901 22.1063C145.901 20.8854 144.912 19.8956 143.691 19.8956C142.47 19.8956 141.48 20.8854 141.48 22.1063C141.48 23.3271 142.47 24.3169 143.691 24.3169Z" fill="#4A90FF"/>
<g opacity="0.6">
<path d="M49.7391 55.2656C46.0547 51.5812 42.3703 51.5812 38.6859 55.2656C42.3703 58.95 46.0547 58.95 49.7391 55.2656Z" stroke="#155DFC" stroke-width="2.21062" stroke-linecap="round"/>
<path opacity="0.7" d="M42.0019 55.2657C39.7912 53.7919 37.5806 53.7919 35.37 55.2657C37.5806 56.7394 39.7912 56.7394 42.0019 55.2657Z" stroke="#155DFC" stroke-width="1.65797" stroke-linecap="round"/>
<path d="M33.1594 56.9236C34.075 56.9236 34.8173 56.1813 34.8173 55.2656C34.8173 54.35 34.075 53.6077 33.1594 53.6077C32.2437 53.6077 31.5014 54.35 31.5014 55.2656C31.5014 56.1813 32.2437 56.9236 33.1594 56.9236Z" fill="#155DFC" stroke="#155DFC" stroke-width="2.21062" stroke-linecap="round"/>
</g>
<g opacity="0.6">
<path d="M171.323 55.2656C175.008 51.5812 178.692 51.5812 182.377 55.2656C178.692 58.95 175.008 58.95 171.323 55.2656Z" stroke="#155DFC" stroke-width="2.21062" stroke-linecap="round"/>
<path opacity="0.7" d="M179.061 55.2657C181.271 53.7919 183.482 53.7919 185.693 55.2657C183.482 56.7394 181.271 56.7394 179.061 55.2657Z" stroke="#155DFC" stroke-width="1.65797" stroke-linecap="round"/>
<path d="M187.903 56.9236C188.819 56.9236 189.561 56.1813 189.561 55.2656C189.561 54.35 188.819 53.6077 187.903 53.6077C186.987 53.6077 186.245 54.35 186.245 55.2656C186.245 56.1813 186.987 56.9236 187.903 56.9236Z" fill="#155DFC" stroke="#155DFC" stroke-width="2.21062" stroke-linecap="round"/>
</g>
<g opacity="0.4">
<path d="M22.1062 38.6859H19.8956V40.8965H22.1062V38.6859Z" fill="#155DFC"/>
<path d="M22.1062 44.2125H19.8956V46.4231H22.1062V44.2125Z" fill="#155DFC"/>
<path d="M22.1062 49.7391H19.8956V51.9497H22.1062V49.7391Z" fill="#4A90FF"/>
<path d="M22.1062 55.2656H19.8956V57.4762H22.1062V55.2656Z" fill="#155DFC"/>
<path d="M22.1062 60.7922H19.8956V63.0028H22.1062V60.7922Z" fill="#155DFC"/>
<path d="M22.1062 66.3187H19.8956V68.5294H22.1062V66.3187Z" fill="#155DFC"/>
<path d="M201.167 38.6859H198.956V40.8965H201.167V38.6859Z" fill="#155DFC"/>
<path d="M201.167 44.2125H198.956V46.4231H201.167V44.2125Z" fill="#155DFC"/>
<path d="M201.167 49.7391H198.956V51.9497H201.167V49.7391Z" fill="#4A90FF"/>
<path d="M201.167 55.2656H198.956V57.4762H201.167V55.2656Z" fill="#155DFC"/>
<path d="M201.167 60.7922H198.956V63.0028H201.167V60.7922Z" fill="#155DFC"/>
<path d="M201.167 66.3187H198.956V68.5294H201.167V66.3187Z" fill="#155DFC"/>
</g>
<g opacity="0.3">
<path d="M27.6328 46.4231L57.4762 53.055" stroke="#155DFC" stroke-width="1.10531" stroke-dasharray="2.21 3.32"/>
<path d="M27.6328 64.1081L57.4762 57.4762" stroke="#155DFC" stroke-width="1.10531" stroke-dasharray="2.21 3.32"/>
<path d="M193.43 46.423L163.586 53.0549" stroke="#155DFC" stroke-width="1.10531" stroke-dasharray="2.21 3.32"/>
<path d="M193.43 64.1081L163.586 57.4762" stroke="#155DFC" stroke-width="1.10531" stroke-dasharray="2.21 3.32"/>
</g>
<g opacity="0.4">
<path d="M13.2637 53.055L16.5797 49.7391H22.1062L25.4222 53.055L22.1062 56.3709H16.5797L13.2637 53.055Z" stroke="#155DFC" stroke-width="1.32638"/>
<path d="M195.64 53.055L198.956 49.7391H204.483L207.799 53.055L204.483 56.3709H198.956L195.64 53.055Z" stroke="#155DFC" stroke-width="1.32638"/>
</g>
<g opacity="0.6">
<path d="M97.2675 16.5797L98.3728 19.8956L101.689 21.001L98.3728 22.1063L97.2675 25.4222L96.1622 22.1063L92.8463 21.001L96.1622 19.8956L97.2675 16.5797Z" fill="#4A90FF"/>
<path d="M123.795 93.9515L124.9 97.2675L128.216 98.3728L124.9 99.4781L123.795 102.794L122.69 99.4781L119.374 98.3728L122.69 97.2675L123.795 93.9515Z" fill="#4A90FF"/>
<path opacity="0.7" d="M66.3187 55.2656L67.4241 57.4762L69.6347 58.5816L67.4241 59.6869L66.3187 61.8975L65.2134 59.6869L63.0028 58.5816L65.2134 57.4762L66.3187 55.2656Z" fill="#4A90FF"/>
<path opacity="0.7" d="M154.744 55.2656L155.849 57.4762L158.06 58.5816L155.849 59.6869L154.744 61.8975L153.638 59.6869L151.428 58.5816L153.638 57.4762L154.744 55.2656Z" fill="#4A90FF"/>
</g>
<path opacity="0.4" d="M110.531 75.1612C121.519 75.1612 130.427 66.2537 130.427 55.2656C130.427 44.2776 121.519 35.37 110.531 35.37C99.5432 35.37 90.6356 44.2776 90.6356 55.2656C90.6356 66.2537 99.5432 75.1612 110.531 75.1612Z" stroke="url(#paint2_linear_1_79)" stroke-width="2.21062"/>
<path opacity="0.3" d="M110.531 68.5294C117.857 68.5294 123.795 62.591 123.795 55.2656C123.795 47.9403 117.857 42.0019 110.531 42.0019C103.206 42.0019 97.2675 47.9403 97.2675 55.2656C97.2675 62.591 103.206 68.5294 110.531 68.5294Z" fill="url(#paint3_radial_1_79)"/>
<defs>
<radialGradient id="paint0_radial_1_79" cx="0" cy="0" r="1" gradientUnits="userSpaceOnUse" gradientTransform="translate(110.531 55.2656) scale(66.3187 44.2125)">
<stop stop-color="#155DFC" stop-opacity="0.3"/>
<stop offset="0.7" stop-color="#155DFC" stop-opacity="0.1"/>
<stop offset="1" stop-color="#155DFC" stop-opacity="0"/>
</radialGradient>
<linearGradient id="paint1_linear_1_79" x1="90.6356" y1="30.9487" x2="2539.33" y2="3703.99" gradientUnits="userSpaceOnUse">
<stop stop-color="#6AA5FF"/>
<stop offset="0.5" stop-color="#155DFC"/>
<stop offset="1" stop-color="#0D3B9E"/>
</linearGradient>
<linearGradient id="paint2_linear_1_79" x1="90.6356" y1="35.37" x2="4069.76" y2="35.37" gradientUnits="userSpaceOnUse">
<stop stop-color="#155DFC" stop-opacity="0.2"/>
<stop offset="0.5" stop-color="#155DFC" stop-opacity="0.8"/>
<stop offset="1" stop-color="#155DFC" stop-opacity="0.2"/>
</linearGradient>
<radialGradient id="paint3_radial_1_79" cx="0" cy="0" r="1" gradientUnits="userSpaceOnUse" gradientTransform="translate(110.531 55.2656) scale(13.2638)">
<stop stop-color="white" stop-opacity="0.9"/>
<stop offset="0.3" stop-color="#4A90FF" stop-opacity="0.7"/>
<stop offset="1" stop-color="#155DFC" stop-opacity="0"/>
</radialGradient>
</defs>
</svg>
